<?xml version="1.0" encoding="UTF-8"?>
<svg id="Calque_1" data-name="Calque 1" xmlns="http://www.w3.org/2000/svg" viewBox="0 0 85.33 38.03">
  <defs>
    <style>
      .cls-1 {
        fill: #8b1a6a;
      }

      .cls-2 {
        fill: #fc486b;
      }

      .cls-3 {
        fill: #08cfb0;
      }
    </style>
  </defs>
  <path class="cls-2" d="M21.61,38.03c-1.1,0-2.17-.4-3-1.13L1.57,22.04c-1.9-1.66-2.1-4.55-.44-6.45,1.66-1.9,4.55-2.1,6.45-.44l13.28,11.59L38.97,1.88c1.49-2.04,4.35-2.49,6.38-1,2.04,1.49,2.49,4.35,1,6.38l-21.06,28.89c-.75,1.04-1.91,1.71-3.18,1.85-.17.02-.34.03-.51.03Z"/>
  <circle class="cls-2" cx="19.27" cy="11.71" r="6.3"/>
  <path class="cls-3" d="M63.73,38.03c-.17,0-.34,0-.51-.03-1.27-.14-2.43-.81-3.18-1.85L38.97,7.26c-1.49-2.04-1.04-4.9,1-6.38,2.04-1.49,4.9-1.04,6.38,1l18.12,24.86,13.28-11.59c1.9-1.66,4.79-1.46,6.45.44,1.66,1.9,1.46,4.79-.44,6.45l-17.04,14.87c-.84.73-1.91,1.13-3,1.13Z"/>
  <path class="cls-1" d="M46.36,7.26l-3.69,5.07-3.69-5.07c-1.49-2.04-1.04-4.9,1-6.38,2.02-1.48,4.86-1.04,6.36.97.04.05.07.1.11.15,1.06,1.55,1.09,3.66-.08,5.27Z"/>
  <circle class="cls-3" cx="66.06" cy="11.71" r="6.3"/>
</svg>